<svg width="24" height="24" viewBox="0 0 24 24" fill="none" xmlns="http://www.w3.org/2000/svg">
<path d="M14.5 11.75C14.15 11.75 13.854 11.629 13.612 11.387C13.37 11.145 13.2493 10.8493 13.25 10.5C13.25 10.15 13.371 9.854 13.613 9.612C13.855 9.37 14.1507 9.24933 14.5 9.25C14.85 9.25 15.146 9.371 15.388 9.613C15.63 9.855 15.7507 10.1507 15.75 10.5C15.75 10.85 15.629 11.146 15.387 11.388C15.145 11.63 14.8493 11.7507 14.5 11.75ZM9.5 11.75C9.15 11.75 8.854 11.629 8.612 11.387C8.37 11.145 8.24933 10.8493 8.25 10.5C8.25 10.15 8.371 9.854 8.613 9.612C8.855 9.37 9.15067 9.24933 9.5 9.25C9.85 9.25 10.146 9.371 10.388 9.613C10.63 9.855 10.7507 10.1507 10.75 10.5C10.75 10.85 10.629 11.146 10.387 11.388C10.145 11.63 9.84933 11.7507 9.5 11.75ZM12 17C11 17 10.0957 16.725 9.287 16.175C8.47833 15.625 7.88267 14.9 7.5 14H16.5C16.1167 14.9 15.521 15.625 14.713 16.175C13.905 16.725 13.0007 17 12 17ZM12 21C10.75 21 9.57933 20.7627 8.488 20.288C7.39667 19.8133 6.44667 19.1717 5.638 18.363C4.82933 17.5543 4.18767 16.6043 3.713 15.513C3.23833 14.4217 3.00067 13.2507 3 12C3 10.75 3.23767 9.57933 3.713 8.488C4.18833 7.39667 4.82967 6.44667 5.637 5.638C6.44567 4.82933 7.39567 4.18767 8.487 3.713C9.57833 3.23833 10.7493 3.00067 12 3C13.25 3 14.421 3.23767 15.513 3.713C16.605 4.18833 17.555 4.82967 18.363 5.637C19.171 6.44567 19.8127 7.39567 20.288 8.487C20.7633 9.57833 21.0007 10.7493 21 12C21 13.25 20.7627 14.421 20.288 15.513C19.8133 16.605 19.1717 17.555 18.363 18.363C17.5543 19.171 16.6043 19.8127 15.513 20.288C14.4217 20.7633 13.2507 21.0007 12 21ZM12 19C13.9333 19 15.5833 18.3167 16.95 16.95C18.3167 15.5833 19 13.9333 19 12C19 10.0667 18.3167 8.41667 16.95 7.05C15.5833 5.68333 13.9333 5 12 5H11.7C11.6 5 11.5 5.01667 11.4 5.05C11.3 5.15 11.2333 5.25833 11.2 5.375C11.1667 5.49167 11.15 5.61667 11.15 5.75C11.15 6.1 11.2707 6.396 11.512 6.638C11.7533 6.88 12.0493 7.00067 12.4 7C12.55 7 12.6877 6.975 12.813 6.925C12.9383 6.875 13.0673 6.85 13.2 6.85C13.4 6.85 13.5667 6.925 13.7 7.075C13.8333 7.225 13.9 7.4 13.9 7.6C13.9 7.98333 13.7207 8.22933 13.362 8.338C13.0033 8.44667 12.6827 8.50067 12.4 8.5C11.65 8.5 11.0043 8.22933 10.463 7.688C9.92167 7.14667 9.65067 6.50067 9.65 5.75V5.6C9.65 5.55 9.65833 5.48333 9.675 5.4C8.29167 5.9 7.16667 6.74167 6.3 7.925C5.43333 9.10833 5 10.4667 5 12C5 13.9333 5.68333 15.5833 7.05 16.95C8.41667 18.3167 10.0667 19 12 19Z" fill="#4C4C4C"/>
</svg>
