<svg width="40" height="40" viewBox="0 0 40 40" fill="none" xmlns="http://www.w3.org/2000/svg">
<path d="M20.0016 36.6671C10.7969 36.6671 3.33496 29.2052 3.33496 20.0004C3.33496 10.7957 10.7969 3.33374 20.0016 3.33374C29.2064 3.33374 36.6683 10.7957 36.6683 20.0004C36.6683 29.2052 29.2064 36.6671 20.0016 36.6671Z" fill="#88BEEC" fill-opacity="0.2" stroke="#1D89E4" stroke-width="0.8" stroke-linecap="round"/>
<path d="M21.6161 14.1161C22.1043 13.628 22.8957 13.628 23.3839 14.1161C23.872 14.6043 23.872 15.3957 23.3839 15.8839L19.2678 20L23.3839 24.1161C23.872 24.6043 23.872 25.3957 23.3839 25.8839C22.8957 26.372 22.1043 26.372 21.6161 25.8839L16.6161 20.8839C16.128 20.3957 16.128 19.6043 16.6161 19.1161L21.6161 14.1161Z" fill="#1D89E4"/>
</svg>
