<svg width="64" height="64" viewBox="0 0 64 64" fill="none" xmlns="http://www.w3.org/2000/svg">
<path d="M5.7998 26.934C6.95536 20.7118 9.96647 15.5562 14.8331 11.4673C19.6998 7.37843 25.422 5.33398 31.9998 5.33398C35.2887 5.33398 38.3887 5.86732 41.2998 6.93398C44.2109 8.00065 46.822 9.51176 49.1331 11.4673C48.5109 12.6229 48.0109 13.6118 47.6331 14.434C47.2554 15.2562 46.9998 16.0229 46.8665 16.734C44.9109 14.8673 42.6665 13.3895 40.1331 12.3007C37.5998 11.2118 34.8887 10.6673 31.9998 10.6673C27.5109 10.6673 23.4887 11.9229 19.9331 14.434C16.3776 16.9451 13.7998 20.1562 12.1998 24.0673C10.9998 24.0229 9.83314 24.2451 8.6998 24.734C7.56647 25.2229 6.5998 25.9562 5.7998 26.934ZM31.9998 58.6673C25.422 58.6673 19.6998 56.6229 14.8331 52.534C9.96647 48.4451 6.95536 43.2895 5.7998 37.0673C6.55536 38.0451 7.4998 38.7895 8.63314 39.3006C9.76647 39.8118 10.9554 40.0451 12.1998 40.0006C13.7998 43.9118 16.3776 47.1118 19.9331 49.6006C23.4887 52.0895 27.5109 53.334 31.9998 53.334C37.9109 53.334 42.9443 51.2562 47.0998 47.1006C51.2554 42.9451 53.3331 37.9118 53.3331 32.0006C53.3331 31.2451 53.2998 30.4895 53.2331 29.734C53.1665 28.9784 53.0443 28.2229 52.8665 27.4673C53.3554 27.6451 53.8554 27.7784 54.3665 27.8673C54.8776 27.9562 55.422 28.0007 55.9998 28.0007C56.3998 28.0007 56.7998 27.9784 57.1998 27.934C57.5998 27.8895 57.9776 27.8229 58.3331 27.734C58.422 28.4451 58.4998 29.1451 58.5665 29.834C58.6331 30.5229 58.6665 31.2451 58.6665 32.0006C58.6665 35.6895 57.9665 39.1562 56.5665 42.4007C55.1665 45.6451 53.2665 48.4673 50.8665 50.8673C48.4665 53.2673 45.6443 55.1673 42.3998 56.5673C39.1554 57.9673 35.6887 58.6673 31.9998 58.6673ZM22.3998 30.934L27.9998 25.334L22.3331 19.6673L19.5331 22.4673L22.3998 25.2673L19.5331 28.134L22.3998 30.934ZM55.9998 24.0007C54.5331 24.0007 53.2776 23.4784 52.2331 22.434C51.1887 21.3895 50.6665 20.134 50.6665 18.6673C50.6665 17.4673 50.9998 16.1895 51.6665 14.834C52.3331 13.4784 53.7776 11.2007 55.9998 8.00065C58.222 11.2007 59.6665 13.4784 60.3331 14.834C60.9998 16.1895 61.3331 17.4673 61.3331 18.6673C61.3331 20.134 60.8109 21.3895 59.7665 22.434C58.722 23.4784 57.4665 24.0007 55.9998 24.0007ZM41.6665 31.0007L44.5331 28.134L41.6665 25.2673L44.4665 22.4673L41.6665 19.6673L35.9998 25.334L41.6665 31.0007ZM31.9998 36.0006C30.8442 36.0006 29.722 36.134 28.6331 36.4007C27.5443 36.6673 26.5109 37.0451 25.5331 37.534L15.9998 32.0006C15.9998 31.2895 15.822 30.6229 15.4665 30.0007C15.1109 29.3784 14.622 28.8895 13.9998 28.534C13.022 28.0007 12.0109 27.8784 10.9665 28.1673C9.92203 28.4562 9.11092 29.0673 8.53314 30.0007C7.9998 30.9784 7.87758 31.9895 8.16647 33.034C8.45536 34.0784 9.06647 34.8895 9.9998 35.4673C10.622 35.8229 11.2887 36.0006 11.9998 36.0006C12.7109 36.0006 13.3776 35.8229 13.9998 35.4673L21.9331 40.0673C21.1776 40.8229 20.4998 41.634 19.8998 42.5006C19.2998 43.3673 18.7998 44.3118 18.3998 45.334H22.7998C23.7331 43.734 24.9998 42.4451 26.5998 41.4673C28.1998 40.4895 29.9998 40.0006 31.9998 40.0006C33.9998 40.0006 35.7998 40.4895 37.3998 41.4673C38.9998 42.4451 40.2665 43.734 41.1998 45.334H45.5998C44.5331 42.5784 42.7887 40.334 40.3665 38.6007C37.9443 36.8673 35.1554 36.0006 31.9998 36.0006Z" fill="#BB2D3B"/>
</svg>
