<svg width="64" height="64" viewBox="0 0 64 64" fill="none" xmlns="http://www.w3.org/2000/svg">
<path d="M26.6663 58.6673V45.334H21.333V26.6673C21.333 24.4451 22.1108 22.5562 23.6663 21.0007C25.2219 19.4451 27.1108 18.6673 29.333 18.6673C31.5552 18.6673 33.4441 19.4451 34.9997 21.0007C36.5552 22.5562 37.333 24.4451 37.333 26.6673C38.933 27.334 40.2219 28.4007 41.1997 29.8673C42.1775 31.334 42.6663 32.934 42.6663 34.6673V45.334H34.6663V58.6673H26.6663ZM29.333 16.0007C27.8663 16.0007 26.6108 15.4784 25.5663 14.434C24.5219 13.3895 23.9997 12.134 23.9997 10.6673C23.9997 9.20065 24.5219 7.9451 25.5663 6.90065C26.6108 5.85621 27.8663 5.33398 29.333 5.33398C30.7997 5.33398 32.0552 5.85621 33.0997 6.90065C34.1441 7.9451 34.6663 9.20065 34.6663 10.6673C34.6663 12.134 34.1441 13.3895 33.0997 14.434C32.0552 15.4784 30.7997 16.0007 29.333 16.0007Z" fill="#23973D"/>
</svg>
