<svg width="64" height="64" viewBox="0 0 64 64" fill="none" xmlns="http://www.w3.org/2000/svg">
<g clip-path="url(#clip0_257_2100)">
<path d="M16 58.6673V38.6673H12V24.0007C12 22.534 12.5222 21.2784 13.5667 20.234C14.6111 19.1895 15.8667 18.6673 17.3333 18.6673H25.3333C26.8 18.6673 28.0556 19.1895 29.1 20.234C30.1444 21.2784 30.6667 22.534 30.6667 24.0007V38.6673H26.6667V58.6673H16ZM21.3333 16.0007C19.8667 16.0007 18.6111 15.4784 17.5667 14.434C16.5222 13.3895 16 12.134 16 10.6673C16 9.20065 16.5222 7.9451 17.5667 6.90065C18.6111 5.85621 19.8667 5.33398 21.3333 5.33398C22.8 5.33398 24.0556 5.85621 25.1 6.90065C26.1444 7.9451 26.6667 9.20065 26.6667 10.6673C26.6667 12.134 26.1444 13.3895 25.1 14.434C24.0556 15.4784 22.8 16.0007 21.3333 16.0007ZM41.3333 58.6673V42.6673H33.3333L40.1333 22.2673C40.4889 21.1118 41.1444 20.2229 42.1 19.6007C43.0556 18.9784 44.1333 18.6673 45.3333 18.6673C46.5333 18.6673 47.6111 18.9784 48.5667 19.6007C49.5222 20.2229 50.1778 21.1118 50.5333 22.2673L57.3333 42.6673H49.3333V58.6673H41.3333ZM45.3333 16.0007C43.8667 16.0007 42.6111 15.4784 41.5667 14.434C40.5222 13.3895 40 12.134 40 10.6673C40 9.20065 40.5222 7.9451 41.5667 6.90065C42.6111 5.85621 43.8667 5.33398 45.3333 5.33398C46.8 5.33398 48.0556 5.85621 49.1 6.90065C50.1444 7.9451 50.6667 9.20065 50.6667 10.6673C50.6667 12.134 50.1444 13.3895 49.1 14.434C48.0556 15.4784 46.8 16.0007 45.3333 16.0007Z" fill="#C73478"/>
</g>
<defs>
<clipPath id="clip0_257_2100">
<rect width="64" height="64" fill="white"/>
</clipPath>
</defs>
</svg>
